<?xml version="1.0" standalone="no"?>
<!DOCTYPE svg PUBLIC "-//W3C//DTD SVG 20010904//EN"
 "http://www.w3.org/TR/2001/REC-SVG-20010904/DTD/svg10.dtd">
<svg version="1.0" xmlns="http://www.w3.org/2000/svg"
 width="48.000000pt" height="48.000000pt" viewBox="0 0 48.000000 48.000000"
 preserveAspectRatio="xMidYMid meet">

<g transform="translate(0.000000,48.000000) scale(0.100000,-0.100000)"
fill="#000000" stroke="none">
<path d="M92 428 c-8 -8 -12 -65 -12 -190 0 -205 -3 -198 99 -198 l61 0 0 68
c0 40 5 73 12 80 7 7 40 12 80 12 l68 0 0 101 c0 145 7 139 -158 139 -94 0
-142 -4 -150 -12z"/>
<path d="M270 108 l0 -62 60 59 c33 33 60 61 60 62 0 2 -27 3 -60 3 l-60 0 0
-62z"/>
</g>
</svg>
