<?xml version="1.0" encoding="UTF-8"?>
<svg xmlns="http://www.w3.org/2000/svg" xmlns:xlink="http://www.w3.org/1999/xlink" width="32px" height="20px" viewBox="0 0 32 20" version="1.1">
<g id="surface1">
<path style=" stroke:none;fill-rule:nonzero;fill:rgb(0%,0%,0%);fill-opacity:1;" d="M 6.132812 2.167969 C 5.601562 2.5 5.332031 4.875 5.332031 10.082031 C 5.332031 18.625 5.132812 18.332031 11.933594 18.332031 L 16 18.332031 L 16 15.5 C 16 13.832031 16.332031 12.457031 16.800781 12.167969 C 17.265625 11.875 19.464844 11.667969 22.132812 11.667969 L 26.667969 11.667969 L 26.667969 7.457031 C 26.667969 1.417969 27.132812 1.667969 16.132812 1.667969 C 9.867188 1.667969 6.667969 1.832031 6.132812 2.167969 Z M 6.132812 2.167969 "/>
<path style=" stroke:none;fill-rule:nonzero;fill:rgb(0%,0%,0%);fill-opacity:1;" d="M 18 15.5 L 18 18.082031 L 22 15.625 C 24.199219 14.25 26 13.082031 26 13.042969 C 26 12.957031 24.199219 12.917969 22 12.917969 L 18 12.917969 Z M 18 15.5 "/>
</g>
</svg>
